# xmcd
# 
# Track frame offsets:
#	150
#	15052
#	27709
#	40280
#	53556
#	72318
#	118678
#	136421
#	153428
#	170843
#	182617
#
# Disc length: 2658 seconds
#
# Revision: 1
# Processed by: cddbd v1.5.1PL0 Copyright (c) Steve Scherf et al.
# Submitted via: Audio-CD-Archiv 3.00.487
#
DISCID=900a600b
DTITLE=Caravan - Es gibt noch mehr...
DYEAR=1900
DGENRE=country
TTITLE0=Mammas don´t let your babies grow up to be Cowboys
TTITLE1=Keine Zeit für Familie
TTITLE2=Wrong
TTITLE3=Nutze die Zeit
TTITLE4=Des Cowboys Freund
TTITLE5=Medley
TTITLE6=Deportee
TTITLE7=Es gibt noch mehr...
TTITLE8=Get off the Truck
TTITLE9=Die Band
TTITLE10=Blue Train
EXTD=
EXTT0=
EXTT1=
EXTT2=
EXTT3=
EXTT4=
EXTT5=
EXTT6=
EXTT7=
EXTT8=
EXTT9=
EXTT10=
PLAYORDER=
